<mxfile host="app.diagrams.net" agent="Mozilla/5.0 (Macintosh; Intel Mac OS X 10_15_7) AppleWebKit/537.36 (KHTML, like Gecko) Chrome/126.0.0.0 Safari/537.36" version="24.7.5">
  <diagram name="Page-1" id="5yACLu_tYYQ9U0vQjmjW">
    <mxGraphModel dx="1949" dy="684" grid="1" gridSize="10" guides="1" tooltips="1" connect="1" arrows="1" fold="1" page="1" pageScale="1" pageWidth="827" pageHeight="1169" math="0" shadow="0">
      <root>
        <mxCell id="0" />
        <mxCell id="1" parent="0" />
        <mxCell id="UiUJdN5zVrT5HYEZLua9-2" value="" style="triangle;whiteSpace=wrap;html=1;" vertex="1" parent="1">
          <mxGeometry x="280" y="120" width="200" height="200" as="geometry" />
        </mxCell>
        <mxCell id="UiUJdN5zVrT5HYEZLua9-3" value="" style="endArrow=classic;html=1;rounded=0;entryX=-0.02;entryY=0.405;entryDx=0;entryDy=0;entryPerimeter=0;" edge="1" parent="1">
          <mxGeometry width="50" height="50" relative="1" as="geometry">
            <mxPoint x="160" y="190" as="sourcePoint" />
            <mxPoint x="276" y="191" as="targetPoint" />
          </mxGeometry>
        </mxCell>
        <mxCell id="UiUJdN5zVrT5HYEZLua9-4" value="&lt;font style=&quot;font-size: 24px;&quot;&gt;Pixel&lt;/font&gt;" style="text;html=1;align=center;verticalAlign=middle;resizable=0;points=[];autosize=1;strokeColor=none;fillColor=none;" vertex="1" parent="1">
          <mxGeometry x="170" y="153" width="80" height="40" as="geometry" />
        </mxCell>
        <mxCell id="UiUJdN5zVrT5HYEZLua9-6" value="" style="endArrow=classic;html=1;rounded=0;entryX=-0.02;entryY=0.405;entryDx=0;entryDy=0;entryPerimeter=0;" edge="1" parent="1">
          <mxGeometry width="50" height="50" relative="1" as="geometry">
            <mxPoint x="160" y="257" as="sourcePoint" />
            <mxPoint x="276" y="258" as="targetPoint" />
          </mxGeometry>
        </mxCell>
        <mxCell id="UiUJdN5zVrT5HYEZLua9-7" value="&lt;font style=&quot;font-size: 24px;&quot;&gt;Ramp&lt;/font&gt;" style="text;html=1;align=center;verticalAlign=middle;resizable=0;points=[];autosize=1;strokeColor=none;fillColor=none;" vertex="1" parent="1">
          <mxGeometry x="165" y="220" width="90" height="40" as="geometry" />
        </mxCell>
        <mxCell id="UiUJdN5zVrT5HYEZLua9-8" value="" style="endArrow=none;html=1;rounded=0;" edge="1" parent="1">
          <mxGeometry width="50" height="50" relative="1" as="geometry">
            <mxPoint x="170" y="400" as="sourcePoint" />
            <mxPoint x="480" y="400" as="targetPoint" />
          </mxGeometry>
        </mxCell>
        <mxCell id="UiUJdN5zVrT5HYEZLua9-9" value="" style="endArrow=none;html=1;rounded=0;" edge="1" parent="1">
          <mxGeometry width="50" height="50" relative="1" as="geometry">
            <mxPoint x="240" y="480" as="sourcePoint" />
            <mxPoint x="400" y="330" as="targetPoint" />
          </mxGeometry>
        </mxCell>
        <mxCell id="UiUJdN5zVrT5HYEZLua9-10" value="&lt;font style=&quot;font-size: 24px;&quot;&gt;Threshold voltage&lt;/font&gt;" style="text;html=1;align=center;verticalAlign=middle;resizable=0;points=[];autosize=1;strokeColor=none;fillColor=none;" vertex="1" parent="1">
          <mxGeometry x="-40" y="380" width="210" height="40" as="geometry" />
        </mxCell>
        <mxCell id="UiUJdN5zVrT5HYEZLua9-11" value="" style="endArrow=none;html=1;rounded=0;exitX=1;exitY=0.5;exitDx=0;exitDy=0;" edge="1" parent="1" source="UiUJdN5zVrT5HYEZLua9-2">
          <mxGeometry width="50" height="50" relative="1" as="geometry">
            <mxPoint x="390" y="310" as="sourcePoint" />
            <mxPoint x="520" y="220" as="targetPoint" />
          </mxGeometry>
        </mxCell>
        <mxCell id="UiUJdN5zVrT5HYEZLua9-12" value="" style="endArrow=none;html=1;rounded=0;" edge="1" parent="1">
          <mxGeometry width="50" height="50" relative="1" as="geometry">
            <mxPoint x="574" y="219" as="sourcePoint" />
            <mxPoint x="674" y="219" as="targetPoint" />
          </mxGeometry>
        </mxCell>
        <mxCell id="UiUJdN5zVrT5HYEZLua9-13" value="" style="endArrow=none;html=1;rounded=0;" edge="1" parent="1">
          <mxGeometry width="50" height="50" relative="1" as="geometry">
            <mxPoint x="674" y="220" as="sourcePoint" />
            <mxPoint x="674" y="160" as="targetPoint" />
          </mxGeometry>
        </mxCell>
        <mxCell id="UiUJdN5zVrT5HYEZLua9-14" value="&lt;font style=&quot;font-size: 24px;&quot;&gt;Comparator&lt;/font&gt;" style="text;html=1;align=center;verticalAlign=middle;whiteSpace=wrap;rounded=0;" vertex="1" parent="1">
          <mxGeometry x="330" y="205" width="60" height="30" as="geometry" />
        </mxCell>
        <mxCell id="UiUJdN5zVrT5HYEZLua9-16" value="" style="endArrow=none;html=1;rounded=0;" edge="1" parent="1">
          <mxGeometry width="50" height="50" relative="1" as="geometry">
            <mxPoint x="674" y="160" as="sourcePoint" />
            <mxPoint x="754" y="160" as="targetPoint" />
          </mxGeometry>
        </mxCell>
        <mxCell id="UiUJdN5zVrT5HYEZLua9-18" value="&lt;font style=&quot;font-size: 24px;&quot;&gt;Sample count&lt;/font&gt;" style="text;html=1;align=center;verticalAlign=middle;whiteSpace=wrap;rounded=0;" vertex="1" parent="1">
          <mxGeometry x="680" y="100" width="60" height="30" as="geometry" />
        </mxCell>
        <mxCell id="UiUJdN5zVrT5HYEZLua9-20" value="" style="swimlane;startSize=0;" vertex="1" parent="1">
          <mxGeometry x="598" y="320" width="200" height="40" as="geometry" />
        </mxCell>
        <mxCell id="UiUJdN5zVrT5HYEZLua9-24" value="" style="endArrow=none;html=1;rounded=0;entryX=0.2;entryY=0.1;entryDx=0;entryDy=0;entryPerimeter=0;" edge="1" parent="UiUJdN5zVrT5HYEZLua9-20">
          <mxGeometry width="50" height="50" relative="1" as="geometry">
            <mxPoint x="121" y="40" as="sourcePoint" />
            <mxPoint x="120" as="targetPoint" />
          </mxGeometry>
        </mxCell>
        <mxCell id="UiUJdN5zVrT5HYEZLua9-25" value="" style="endArrow=none;html=1;rounded=0;entryX=0.2;entryY=0.1;entryDx=0;entryDy=0;entryPerimeter=0;" edge="1" parent="UiUJdN5zVrT5HYEZLua9-20">
          <mxGeometry width="50" height="50" relative="1" as="geometry">
            <mxPoint x="161" y="40" as="sourcePoint" />
            <mxPoint x="160" as="targetPoint" />
          </mxGeometry>
        </mxCell>
        <mxCell id="UiUJdN5zVrT5HYEZLua9-21" value="" style="endArrow=none;html=1;rounded=0;entryX=0.2;entryY=0.1;entryDx=0;entryDy=0;entryPerimeter=0;" edge="1" parent="1">
          <mxGeometry width="50" height="50" relative="1" as="geometry">
            <mxPoint x="638" y="360" as="sourcePoint" />
            <mxPoint x="637" y="320" as="targetPoint" />
          </mxGeometry>
        </mxCell>
        <mxCell id="UiUJdN5zVrT5HYEZLua9-23" value="" style="endArrow=none;html=1;rounded=0;entryX=0.2;entryY=0.1;entryDx=0;entryDy=0;entryPerimeter=0;" edge="1" parent="1">
          <mxGeometry width="50" height="50" relative="1" as="geometry">
            <mxPoint x="677" y="361" as="sourcePoint" />
            <mxPoint x="676" y="321" as="targetPoint" />
          </mxGeometry>
        </mxCell>
        <mxCell id="UiUJdN5zVrT5HYEZLua9-27" value="" style="endArrow=classic;html=1;rounded=0;" edge="1" parent="1">
          <mxGeometry width="50" height="50" relative="1" as="geometry">
            <mxPoint x="699" y="245" as="sourcePoint" />
            <mxPoint x="699" y="315" as="targetPoint" />
          </mxGeometry>
        </mxCell>
      </root>
    </mxGraphModel>
  </diagram>
</mxfile>
